<svg xmlns="http://www.w3.org/2000/svg" viewBox="0 0 500 620"><rect width="500" height="620" rx="60" fill="#dff5ed"/><circle cx="250" cy="190" r="100" fill="#f0c6a8"/><path d="M150 180c8-100 194-130 208 10-50-48-124-47-208-10z" fill="#49352f"/><path d="M150 275c10 180 40 270 100 270s90-90 100-270c-20 20-55 34-100 34s-80-14-100-34z" fill="#fff"/><path d="M105 610c8-130 45-190 145-190s137 60 145 190z" fill="#58b89a"/><circle cx="215" cy="195" r="7" fill="#49352f"/><circle cx="285" cy="195" r="7" fill="#49352f"/><path d="M225 235q25 20 50 0" fill="none" stroke="#a65d55" stroke-width="5" stroke-linecap="round"/></svg>